HIERARCHY
ROOT Hips
{
	OFFSET 0.000000 8.830580 0.000000
	CHANNELS 6 Xposition Yposition Zposition Zrotation Yrotation Xrotation 
	JOINT Spine
	{
		OFFSET 0.000000 0.010000 0.000000
		CHANNELS 3 Zrotation Yrotation Xrotation
		JOINT Spine1
		{
			OFFSET 0.000000 2.459130 0.000000
			CHANNELS 3 Zrotation Yrotation Xrotation
			JOINT Neck
			{
				OFFSET 0.000000 2.484630 0.000000
				CHANNELS 3 Zrotation Yrotation Xrotation
				JOINT Head_virtual
				{
					OFFSET 0.000000 0.000000 0.000000
					CHANNELS 3 Zrotation Yrotation Xrotation
					JOINT Head
					{
						OFFSET 0.000000 0.927525 0.000000
						CHANNELS 3 Zrotation Yrotation Xrotation
						End Site
						{
							OFFSET 0.000000 0.000000 0.000000
						}
					}
				}
				JOINT LeftUpArm_virtual
				{
					OFFSET 0.000000 0.000000 0.000000
					CHANNELS 3 Zrotation Yrotation Xrotation
					JOINT LeftUpArm
					{
						OFFSET 1.248820 0.000000 0.000000
						CHANNELS 3 Zrotation Yrotation Xrotation
						JOINT LeftForeArm
						{
							OFFSET 2.597580 0.000000 0.000000
							CHANNELS 3 Zrotation Yrotation Xrotation
							JOINT LeftHand
							{
								OFFSET 2.455420 0.000000 0.000000
								CHANNELS 3 Zrotation Yrotation Xrotation
								End Site
								{
									OFFSET 0.000000 0.000000 0.000000
								}
							}
						}
					}
				}
				JOINT RightUpArm_virtual
				{
					OFFSET -0.000000 -0.000000 -0.000000
					CHANNELS 3 Zrotation Yrotation Xrotation
					JOINT RightUpArm
					{
						OFFSET -1.248820 -0.000000 -0.000000
						CHANNELS 3 Zrotation Yrotation Xrotation
						JOINT RightForeArm
						{
							OFFSET -2.597580 -0.000000 -0.000000
							CHANNELS 3 Zrotation Yrotation Xrotation
							JOINT RightHand
							{
								OFFSET -2.455420 -0.000000 -0.000000
								CHANNELS 3 Zrotation Yrotation Xrotation
								End Site
								{
									OFFSET 0.000000 0.000000 0.000000
								}
							}
						}
					}
				}
			}
		}
	}
	JOINT LeftUpLeg
	{
		OFFSET 1.271939 0.000000 0.000000
		CHANNELS 3 Zrotation Yrotation Xrotation
		JOINT LeftLowLeg
		{
			OFFSET 0.000000 -4.342910 0.000000
			CHANNELS 3 Zrotation Yrotation Xrotation
			JOINT LeftFoot
			{
				OFFSET 0.000000 -4.487670 0.000000
				CHANNELS 3 Zrotation Yrotation Xrotation
				JOINT LeftToeBase
				{
					OFFSET 0.000000 0.000000 1.515070
					CHANNELS 3 Zrotation Yrotation Xrotation
					End Site
					{
						OFFSET 0.000000 0.000000 0.000000
					}
				}
			}
		}
	}
	JOINT RightUpLeg
	{
		OFFSET -1.271939 0.000000 0.000000
		CHANNELS 3 Zrotation Yrotation Xrotation
		JOINT RightLowLeg
		{
			OFFSET 0.000000 -4.342910 0.000000
			CHANNELS 3 Zrotation Yrotation Xrotation
			JOINT RightFoot
			{
				OFFSET 0.000000 -4.487670 0.000000
				CHANNELS 3 Zrotation Yrotation Xrotation
				JOINT RightToeBase
				{
					OFFSET 0.000000 0.000000 1.515070
					CHANNELS 3 Zrotation Yrotation Xrotation
					End Site
					{
						OFFSET 0.000000 0.000000 0.000000
					}
				}
			}
		}
	}
}
MOTION
Frames: 11
Frame Time: 0.041667
-21.294880 8.920141 44.491272 -179.804608 25.969631 -172.775404 9.158580 -0.038952 0.044213 14.983999 -0.295716 25.791669 0.000000 0.000000 0.000000 -15.145962 0.350354 -24.803642 -0.836909 3.143066 -54.740827 -23.966700 3.637520 1.389640 -48.858200 -11.740700 28.007299 0.000000 -47.020000 0.000000 17.040300 9.463250 3.232200 21.235901 2.949440 7.869700 31.601900 22.051800 4.958500 0.000000 27.682100 0.000000 -23.165600 -5.681920 0.465563 -12.100163 8.769276 -10.431078 0.000000 0.000000 8.091880 -1.578028 4.363888 5.770887 0.000000 0.000000 -37.805201 -1.222835 -26.041707 -32.462591 0.000000 0.000000 31.018600 17.584300 -1.168215 17.218221 0.000000 0.000000 -29.467600 
-21.289338 8.919815 44.484856 -179.827776 25.817722 -172.822453 9.367844 -0.131810 0.006910 15.158720 -0.339224 25.565981 0.000000 0.000000 0.000000 -15.582809 0.214642 -24.656377 -0.885486 3.053231 -54.528283 -24.031099 3.695300 1.415120 -48.871201 -11.574600 28.298100 0.000000 -47.416000 0.000000 17.062099 9.474500 3.416970 21.156700 2.836900 7.499840 31.577400 21.767599 5.592510 0.000000 27.940201 0.000000 -23.316700 -6.130470 0.556516 -12.051103 8.392812 -10.397367 0.000000 0.000000 8.226400 -1.567803 4.595559 5.690495 0.000000 0.000000 -37.811001 -1.253668 -26.198334 -32.369810 0.000000 0.000000 31.100100 17.589755 -1.163523 17.033719 0.000000 0.000000 -29.339800 
-21.285139 8.920024 44.477405 -179.826274 25.661673 -172.856101 9.680119 -0.217623 -0.010076 15.236818 -0.364152 25.242046 0.000000 0.000000 0.000000 -16.204568 0.070745 -24.417383 -0.830809 2.945834 -54.402829 -24.115801 3.747470 1.442800 -48.783001 -11.414800 28.726999 0.000000 -47.677101 0.000000 17.128401 9.326070 3.340570 21.059900 2.783230 7.218800 31.579901 21.501499 6.357180 0.000000 27.921000 0.000000 -23.612900 -6.212240 0.498026 -11.974405 7.909096 -10.374866 0.000000 0.000000 8.388130 -1.577957 4.914080 5.595312 0.000000 0.000000 -37.825899 -1.278191 -26.393403 -32.290298 0.000000 0.000000 31.197901 17.631062 -1.091474 16.950258 0.000000 0.000000 -29.352600 
-21.281812 8.920432 44.469392 -179.845115 25.511757 -172.860793 9.997482 -0.264681 -0.145525 15.340108 -0.373914 25.067370 0.000000 0.000000 0.000000 -16.827193 -0.128948 -24.259764 -0.739306 2.738941 -54.294770 -24.171000 3.717330 1.447170 -48.745800 -11.337500 29.143801 0.000000 -47.863899 0.000000 17.101900 9.399500 3.436960 20.867201 2.732100 6.963190 31.552000 21.250401 7.412750 0.000000 27.856899 0.000000 -24.197901 -6.515500 0.036750 -11.950387 7.648734 -10.381276 0.000000 0.000000 8.525450 -1.581734 5.010053 5.540715 0.000000 0.000000 -37.867201 -1.292922 -26.662876 -32.288319 0.000000 0.000000 31.339300 17.693229 -0.938820 16.925221 0.000000 0.000000 -29.383700 
-21.278649 8.920380 44.459625 -179.896899 25.345588 -172.853347 10.287946 -0.285062 -0.310845 15.495023 -0.336851 24.790458 0.000000 0.000000 0.000000 -17.393834 -0.382609 -23.960346 -0.670995 2.550129 -54.260476 -24.278700 3.713320 1.593880 -48.644199 -11.437300 29.651400 0.000000 -47.874199 0.000000 17.142300 9.279560 3.692600 20.635099 2.755500 6.873210 31.526199 20.869600 8.070570 0.000000 27.814899 0.000000 -24.633200 -6.682160 -0.438449 -11.983372 7.564216 -10.357917 0.000000 0.000000 8.568460 -1.580344 4.911979 5.525987 0.000000 0.000000 -37.849600 -1.300545 -27.071089 -32.354803 0.000000 0.000000 31.541000 17.906266 -0.642985 16.963991 0.000000 0.000000 -29.555400 
-21.275146 8.919263 44.450776 -179.965001 25.229971 -172.875764 10.495728 -0.281582 -0.453313 15.721960 -0.271601 24.511394 0.000000 0.000000 0.000000 -17.838655 -0.666758 -23.600796 -0.706100 2.393281 -54.186501 -24.368999 3.714990 1.551150 -48.655800 -11.387700 30.110800 0.000000 -47.857201 0.000000 17.074499 9.188280 4.135620 20.436300 2.742810 6.963260 31.321699 20.602600 8.715700 0.000000 27.790100 0.000000 -25.270800 -6.845200 -1.163840 -12.014799 7.420555 -10.274270 0.000000 0.000000 8.530390 -1.581275 4.902220 5.515548 0.000000 0.000000 -37.905300 -1.314311 -27.447283 -32.473192 0.000000 0.000000 31.827600 17.947518 -0.386557 17.000249 0.000000 0.000000 -29.678600 
-21.272352 8.917777 44.439992 179.988125 25.044928 -172.958711 10.792020 -0.297301 -0.582121 15.836385 -0.239384 24.266026 0.000000 0.000000 0.000000 -18.191843 -0.935051 -23.242737 -0.753600 2.262995 -54.147393 -24.474100 3.736480 1.557370 -48.601299 -11.353200 30.322800 0.000000 -47.924301 0.000000 16.886700 9.083870 4.592300 20.254200 2.798500 7.102350 31.167400 20.236200 8.920520 0.000000 27.926201 0.000000 -25.791401 -7.407950 -1.356290 -12.003703 7.094513 -10.134603 0.000000 0.000000 8.543980 -1.602945 5.002664 5.468594 0.000000 0.000000 -37.936501 -1.329493 -28.000697 -32.495776 0.000000 0.000000 32.109100 18.061199 -0.022515 17.039951 0.000000 0.000000 -29.814400 
-21.270126 8.915359 44.428382 179.891046 25.027310 -173.130665 11.035938 -0.246557 -0.636169 15.900674 -0.157678 24.098097 0.000000 0.000000 0.000000 -18.495343 -1.166603 -23.024091 -0.822659 2.113604 -54.033381 -24.545000 3.784050 1.564140 -48.610401 -11.321700 30.342899 0.000000 -47.939201 0.000000 16.811199 8.907420 5.137100 20.131201 2.758480 7.185590 30.958700 20.071301 9.208300 0.000000 27.856001 0.000000 -26.129400 -7.647720 -1.801040 -12.052109 6.905029 -9.924868 0.000000 0.000000 8.546030 -1.606255 5.142943 5.407604 0.000000 0.000000 -37.962400 -1.484456 -28.289006 -32.485647 0.000000 0.000000 32.458698 18.252604 0.288253 17.068373 0.000000 0.000000 -29.959200 
-21.269162 8.912210 44.423397 179.821822 24.817435 -173.183403 11.279831 -0.304909 -0.701075 15.962078 -0.165422 23.818305 0.000000 0.000000 0.000000 -18.761424 -1.359428 -22.847168 -0.949443 2.001640 -53.959320 -24.598499 3.878830 1.524560 -48.642899 -11.210800 30.226601 0.000000 -48.053398 0.000000 16.818001 8.911660 5.521270 20.022100 2.709280 7.299190 30.787001 20.025999 9.271000 0.000000 27.787701 0.000000 -26.372700 -8.136730 -2.162760 -12.066417 6.539034 -9.947716 0.000000 0.000000 8.736200 -1.625929 5.254896 5.297448 0.000000 0.000000 -37.961201 -1.601804 -28.566079 -32.574298 0.000000 0.000000 32.836601 18.409369 0.473707 17.015889 0.000000 0.000000 -29.993000 
-21.267410 8.909897 44.416424 179.736226 24.761828 -173.259509 11.438620 -0.308309 -0.821315 16.126688 -0.144958 23.726080 0.000000 0.000000 0.000000 -19.123824 -1.548083 -22.712041 -1.017499 1.840165 -53.920631 -24.670500 3.888730 1.440810 -48.730801 -11.020700 30.034599 0.000000 -48.148201 0.000000 16.960699 8.910260 5.604270 19.902201 2.702390 7.208970 30.599100 19.861099 9.347900 0.000000 27.747200 0.000000 -26.369200 -8.193510 -2.617760 -12.125065 6.444898 -9.906612 0.000000 0.000000 8.841370 -1.641584 5.263783 5.216419 0.000000 0.000000 -37.989000 -1.746292 -28.669286 -32.626395 0.000000 0.000000 33.134899 18.535540 0.606846 16.983741 0.000000 0.000000 -30.094500 
-21.263969 8.908046 44.407762 179.624117 24.751529 -173.408385 11.569191 -0.270611 -0.950687 16.269809 -0.105209 23.748843 0.000000 0.000000 0.000000 -19.486533 -1.740912 -22.561379 -0.975887 1.653172 -53.885873 -24.750200 3.861960 1.491070 -48.732101 -10.962200 29.789900 0.000000 -48.236301 0.000000 17.142000 8.957540 5.399680 19.805201 2.587180 7.056780 30.485201 19.799900 9.357240 0.000000 27.596399 0.000000 -26.447901 -8.305620 -2.984990 -12.205978 6.506731 -9.754804 0.000000 0.000000 8.867790 -1.655669 5.170750 5.171663 0.000000 0.000000 -37.984301 -1.943949 -28.700891 -32.593934 0.000000 0.000000 33.402302 18.543206 0.703209 16.897131 0.000000 0.000000 -30.148100 
